# Blender v2.78 (sub 0) OBJ File: ''
# www.blender.org
mtllib 300Arch_short.mtl
o 300Arch_short
v 0.020000 -0.255000 -0.150000
v 0.020000 -0.275000 -0.150000
v -0.020000 -0.255000 -0.150000
v -0.020000 -0.275000 -0.150000
v -0.020000 -0.255000 -0.020000
v -0.020000 -0.275000 -0.000000
v 0.020000 0.255000 -0.150000
v 0.020000 0.275000 -0.150000
v 0.020000 0.255000 -0.020000
v 0.020000 0.275000 0.000000
v 0.020000 -0.255000 -0.020000
v 0.020000 -0.275000 -0.000000
v -0.020000 0.255000 -0.150000
v -0.020000 0.275000 -0.150000
v -0.020000 0.255000 -0.020000
v -0.020000 0.275000 0.000000
vn 0.0000 0.0000 -1.0000
vn -1.0000 0.0000 0.0000
vn 1.0000 0.0000 0.0000
vn 0.0000 -0.0000 1.0000
vn 0.0000 1.0000 0.0000
vn 0.0000 -1.0000 0.0000
usemtl None
s off
f 1//1 2//1 3//1
f 3//1 2//1 4//1
f 3//2 4//2 5//2
f 5//2 4//2 6//2
f 7//3 8//3 9//3
f 9//3 8//3 10//3
f 9//3 10//3 11//3
f 11//3 10//3 12//3
f 11//3 12//3 1//3
f 1//3 12//3 2//3
f 13//1 14//1 7//1
f 7//1 14//1 8//1
f 15//2 16//2 13//2
f 13//2 16//2 14//2
f 6//4 12//4 10//4
f 6//4 10//4 16//4
f 14//5 16//5 8//5
f 8//5 16//5 10//5
f 6//6 4//6 2//6
f 12//6 6//6 2//6
f 3//5 5//5 1//5
f 1//5 5//5 11//5
f 15//1 9//1 5//1
f 5//1 9//1 11//1
f 15//6 13//6 7//6
f 9//6 15//6 7//6
f 16//2 15//2 6//2
f 6//2 15//2 5//2
