# File produced by Open Asset Import Library (http://www.assimp.sf.net)
# (assimp v3.1.187496374)

mtllib hokuyo_utm_30lx.obj.mtl

# 36 vertex positions
v  0.0286568 0.0135019 0.0286568
v  0.0286583 0.0242925 -0.0286583
v  0.0286583 0.0242925 0.0286583
v  0.0286568 0.013502 -0.0286568
v  -0.0286568 0.013502 0.0286568
v  -0.0286583 0.0242925 0.0286583
v  -0.0286568 0.013502 -0.0286568
v  -0.0286583 0.0242925 -0.0286583
v  -0.0286568 0.013502 -0.0085
v  -0.0286568 0.013502 0.00850001
v  0.0222669 0.0128488 0.0222669
v  0.0222669 0.0128488 -0.0222669
v  -0.0222669 0.0128488 0.0222669
v  -0.0222669 0.0128488 -0.0222668
v  -0.0222669 0.0128488 -0.0085
v  -0.0222669 0.0128488 0.0085
v  0.0286594 0.032 -0.0286594
v  0.0286594 0.032 0.0286594
v  -0.0286594 0.032 0.0286594
v  -0.0286594 0.032 -0.0286594
v  -0.0309229 -0.055 -0.0309229
v  0.0309229 -0.055 -0.0309229
v  0.0309229 -0.055 0.0309229
v  -0.0309229 -0.055 0.0309229
v  0.0249853 -0.0153513 0.0249852
v  0.030313 -0.01843 0.030313
v  0.030313 -0.01843 -0.030313
v  0.0249852 -0.0153513 -0.0249853
v  -0.0249852 -0.0153513 0.0249853
v  -0.0249853 -0.0153513 -0.0249852
v  -0.0249853 -0.0153513 -0.0085
v  -0.0249852 -0.0153513 0.0085
v  -0.030313 -0.01843 0.0303131
v  -0.03031 -0.01843 -0.030313
v  -0.03031 -0.01843 -0.0085
v  -0.030313 -0.01843 0.0085

# 0 UV coordinates

# 67 vertex normals
vn 0.102731 -1.45158e-05 -8.78037e-08
vn 0.102731 -1.45158e-05 -8.78068e-08
vn 7.13344e-08 -1.45495e-05 0.102731
vn 6.58519e-08 -1.45203e-05 0.102731
vn -0.102731 -1.4545e-05 6.58493e-08
vn -0.102731 -1.44438e-05 4.68101e-08
vn -0.102731 -1.45158e-05 7.80166e-08
vn -7.6825e-08 -1.45113e-05 -0.102731
vn -7.13428e-08 -1.44821e-05 -0.102731
vn 0.0104469 -0.102199 -2.4267e-08
vn 0.010447 -0.102199 -4.46724e-09
vn -2.03729e-17 -0.102199 0.010447
vn -2.0373e-17 -0.102199 0.0104469
vn -2.50123e-17 -0.102199 -0.010447
vn -1.81712e-08 -0.102199 -0.0104471
vn -0.0104471 -0.102199 -4.46724e-09
vn -0.010447 -0.102199 -4.46724e-09
vn -0.010447 -0.102199 -4.46724e-09
vn -0.010447 -0.102199 -4.46724e-09
vn 0.102731 -1.45274e-05 -9.32861e-08
vn 0.102731 -1.44866e-05 -8.78037e-08
vn 7.68204e-08 -1.45728e-05 0.102731
vn 7.13344e-08 -1.4532e-05 0.102731
vn -0.102731 -1.45274e-05 6.58493e-08
vn -0.102731 -1.44866e-05 7.13325e-08
vn -8.23109e-08 -1.45229e-05 -0.102731
vn -7.6825e-08 -1.44821e-05 -0.102731
vn 2.28109e-17 0.102731 4.49052e-09
vn -2.28109e-17 -0.102731 -4.49052e-09
vn 0.0513996 0.0889482 -2.08721e-08
vn 0.0513996 0.0889482 -2.11512e-08
vn 0.0477147 0.0774583 0.0477147
vn 0.0380645 -0.0874941 -0.0380645
vn 0.0380645 -0.0874941 0.0380645
vn 0.0477147 0.0774583 -0.0477147
vn -0.0477147 0.0774583 0.0477147
vn -0.0380645 -0.0874941 0.0380645
vn -0.0477272 0.0774521 -0.0477147
vn -0.0380645 -0.0874941 -0.0380645
vn -0.0679931 0.0437079 -0.0634001
vn -0.0648642 -0.0531448 -0.05934
vn -0.0648642 -0.0531448 0.0593431
vn -0.06799 0.0437173 0.0634001
vn 0.102717 0.00171296 -5.58593e-08
vn 0.102717 0.00171298 -6.72058e-08
vn 4.06794e-08 0.00171295 0.102717
vn 5.1912e-08 0.00171296 0.102717
vn 2.59569e-08 0.0889482 0.0513997
vn 3.1607e-08 0.0889482 0.0513996
vn -0.102717 0.00172144 2.54998e-08
vn -0.102717 0.00172145 2.90302e-08
vn -4.06794e-08 0.001713 -0.102717
vn -5.18008e-08 0.00171302 -0.102717
vn -3.14918e-08 0.0889482 -0.0513996
vn -2.57147e-08 0.0889482 -0.0513996
vn -0.102717 0.00171299 5.79837e-08
vn -0.102717 0.00170178 -1.82212e-05
vn -0.0514215 0.0889355 2.45637e-08
vn -0.0514215 0.0889355 2.62937e-08
vn -0.0513996 0.0889482 4.52635e-08
vn -0.0513996 0.0889482 5.3818e-08
vn 2.28109e-17 -4.49052e-09 0.102731
vn 3.74031e-08 -4.49052e-09 0.102731
vn -0.102593 0.00532129 -1.81994e-05
vn -0.102594 0.00531159 5.61406e-08
vn -2.28109e-17 4.49052e-09 -0.102731
vn 2.38064e-08 4.49052e-09 -0.102731

# Mesh 'Plane_Plane-mesh' with 20 faces
g Plane_Plane-mesh
usemtl Hokuyo_Orange-material
f  1//1 2//1 3//1
f  1//1 4//2 2//1
f  5//3 3//3 6//3
f  5//3 1//4 3//3
f  7//5 6//5 8//5
f  7//5 9//6 6//5
f  10//7 5//7 6//5
f  9//6 10//7 6//5
f  4//8 8//8 2//8
f  4//8 7//9 8//8
f  1//10 11//10 4//10
f  11//10 12//11 4//10
f  5//12 13//12 11//12
f  5//12 11//12 1//13
f  4//14 12//14 14//14
f  4//14 14//14 7//15
f  14//16 15//16 7//16
f  7//16 15//16 9//17
f  13//18 5//18 10//18
f  13//18 10//18 16//19

# Mesh 'Plane_Plane-mesh' with 48 faces
g Plane_Plane-mesh
usemtl BodyDark-material
f  3//20 17//20 18//20
f  3//20 2//21 17//20
f  6//22 18//22 19//22
f  6//22 3//23 18//22
f  8//24 6//24 20//24
f  20//24 6//24 19//25
f  2//26 20//26 17//26
f  2//26 8//27 20//26
f  20//28 19//28 18//28
f  20//28 18//28 17//28
f  21//29 22//29 23//29
f  21//29 23//29 24//29
f  25//30 26//30 27//30
f  25//30 27//30 28//31
f  25//32 12//33 11//34
f  25//32 28//35 12//33
f  29//36 25//32 13//37
f  13//37 25//32 11//34
f  12//33 30//38 14//39
f  30//38 12//33 28//35
f  30//38 31//40 14//39
f  31//40 15//41 14//39
f  13//37 16//42 32//43
f  13//37 32//43 29//36
f  26//44 23//44 22//44
f  26//44 22//44 27//45
f  33//46 24//46 23//46
f  33//46 23//46 26//47
f  29//48 33//48 26//48
f  29//48 26//48 25//49
f  34//50 21//50 24//50
f  35//51 34//50 24//50
f  27//52 22//52 21//52
f  27//52 21//52 34//53
f  34//54 30//54 28//54
f  34//54 28//54 27//55
f  33//56 36//56 24//56
f  36//57 35//57 24//57
f  30//58 34//58 35//58
f  30//58 35//58 31//59
f  33//60 29//60 36//60
f  29//60 32//61 36//60
f  36//62 32//62 10//62
f  32//62 16//63 10//62
f  36//64 10//64 35//64
f  10//65 9//65 35//65
f  35//66 9//66 31//66
f  31//66 9//66 15//67

