# Blender v2.78 (sub 0) OBJ File: 'hokuyo_utm30lx.blend'
# www.blender.org
mtllib hokuyo_utm_30lx.mtl
o Plane
v -0.024985 -0.015351 -0.024985
v -0.028657 0.013502 -0.028657
v -0.022267 0.012849 -0.022267
v -0.030310 -0.018430 -0.030313
v -0.030923 -0.055000 -0.030923
v -0.028659 0.032000 -0.028659
v -0.028659 0.032000 0.028659
v -0.030923 -0.055000 0.030923
v -0.030313 -0.018430 0.030313
v -0.022267 0.012849 0.022267
v -0.028657 0.013502 0.028657
v -0.024985 -0.015351 0.024985
v 0.024985 -0.015351 0.024985
v 0.028657 0.013502 0.028657
v 0.022267 0.012849 0.022267
v 0.030313 -0.018430 0.030313
v 0.030923 -0.055000 0.030923
v 0.028659 0.032000 0.028659
v 0.028659 0.032000 -0.028659
v 0.030923 -0.055000 -0.030923
v 0.030313 -0.018430 -0.030313
v 0.022267 0.012849 -0.022267
v 0.028657 0.013502 -0.028657
v 0.024985 -0.015351 -0.024985
v -0.028658 0.024292 -0.028658
v -0.028658 0.024292 0.028658
v 0.028658 0.024292 0.028658
v 0.028658 0.024292 -0.028658
v -0.030313 -0.018430 0.008500
v -0.030310 -0.018430 -0.008500
v -0.028657 0.013502 0.008500
v -0.028657 0.013502 -0.008500
v -0.024985 -0.015351 0.008500
v -0.024985 -0.015351 -0.008500
v -0.022267 0.012849 -0.008500
v -0.022267 0.012849 0.008500
vn 1.0000 -0.0001 -0.0000
vn 0.0000 -0.0001 1.0000
vn -1.0000 -0.0001 0.0000
vn -0.0000 -0.0001 -1.0000
vn 0.1017 -0.9948 -0.0000
vn 0.0000 -0.9948 0.1017
vn -0.0000 -0.9948 -0.1017
vn -0.1017 -0.9948 0.0000
vn 0.0000 1.0000 0.0000
vn 0.0000 -1.0000 0.0000
vn 0.5003 0.8658 -0.0000
vn 0.9999 0.0167 -0.0000
vn 0.0000 0.0167 0.9999
vn 0.0000 0.8658 0.5003
vn -0.9999 0.0168 0.0000
vn -0.0000 0.0167 -0.9999
vn -0.0000 0.8658 -0.5003
vn -0.9999 0.0167 0.0000
vn -0.9999 0.0166 -0.0002
vn -0.5005 0.8657 0.0000
vn -0.5003 0.8658 0.0000
vn 0.0000 -0.0000 1.0000
vn -0.9987 0.0518 -0.0002
vn -0.9987 0.0517 0.0000
vn 0.4645 0.7540 0.4645
vn 0.3705 -0.8517 -0.3705
vn 0.3705 -0.8517 0.3705
vn 0.4645 0.7540 -0.4645
vn -0.4645 0.7540 0.4645
vn -0.3705 -0.8517 0.3705
vn -0.4646 0.7539 -0.4645
vn -0.3705 -0.8517 -0.3705
vn -0.6314 -0.5173 0.5777
vn -0.6618 0.4256 0.6171
vn -0.6619 0.4255 0.6171
usemtl Hokuyo_Orange
s off
f 14//1 28//1 27//1
f 14//1 23//1 28//1
f 11//2 27//2 26//2
f 11//2 14//2 27//2
f 2//3 26//3 25//3
f 23//4 25//4 28//4
f 23//4 2//4 25//4
f 14//5 15//5 23//5
f 15//5 22//5 23//5
f 11//6 10//6 15//6
f 11//6 15//6 14//6
f 23//7 22//7 3//7
f 23//7 3//7 2//7
f 31//3 11//3 26//3
f 2//3 32//3 26//3
f 32//3 31//3 26//3
f 3//8 35//8 2//8
f 2//8 35//8 32//8
f 10//8 11//8 31//8
f 10//8 31//8 36//8
usemtl BodyDark
f 27//1 19//1 18//1
f 27//1 28//1 19//1
f 26//2 18//2 7//2
f 26//2 27//2 18//2
f 25//3 26//3 6//3
f 6//3 26//3 7//3
f 28//4 6//4 19//4
f 28//4 25//4 6//4
f 6//9 7//9 18//9
f 6//9 18//9 19//9
f 5//10 20//10 17//10
f 5//10 17//10 8//10
f 13//11 16//11 21//11
f 13//11 21//11 24//11
f 16//12 17//12 20//12
f 16//12 20//12 21//12
f 9//13 8//13 17//13
f 9//13 17//13 16//13
f 12//14 9//14 16//14
f 12//14 16//14 13//14
f 4//15 5//15 8//15
f 21//16 20//16 5//16
f 21//16 5//16 4//16
f 4//17 1//17 24//17
f 4//17 24//17 21//17
f 9//18 29//18 8//18
f 29//19 30//19 8//19
f 30//15 4//15 8//15
f 1//20 4//20 30//20
f 1//20 30//20 34//20
f 9//21 12//21 29//21
f 12//21 33//21 29//21
f 29//22 33//22 31//22
f 33//22 36//22 31//22
f 29//23 31//23 30//23
f 31//24 32//24 30//24
f 30//22 34//22 32//22
f 34//22 35//22 32//22
s 1
f 13//25 22//26 15//27
f 13//25 24//28 22//26
f 12//29 13//25 10//30
f 10//30 13//25 15//27
f 22//26 1//31 3//32
f 1//31 22//26 24//28
f 10//30 36//33 33//34
f 10//30 33//34 12//29
f 1//31 34//35 3//32
f 34//35 35//33 3//32
